<svg width="24" height="24" viewBox="0 0 24 24" fill="none" xmlns="http://www.w3.org/2000/svg">
<rect x="0.5" y="0.5" width="23" height="23" rx="5.5" fill="url(#paint0_linear_4_40)"/>
<rect x="0.5" y="0.5" width="23" height="23" rx="5.5" stroke="#44403B"/>
<g filter="url(#filter0_d_4_40)">
<path d="M9.3335 12.5832L9.41016 12.5871C9.78824 12.6255 10.0834 12.945 10.0835 13.3332V16.5832H10.6665L10.7432 16.5871C11.1214 16.6254 11.4164 16.9448 11.4165 17.3332C11.4165 17.7215 11.1214 18.0409 10.7432 18.0793L10.6665 18.0832H8C7.58579 18.0832 7.25 17.7474 7.25 17.3332C7.25009 16.919 7.58584 16.5832 8 16.5832H8.5835V14.0832H8C7.58579 14.0832 7.25 13.7474 7.25 13.3332C7.25009 12.919 7.58584 12.5832 8 12.5832H9.3335ZM15.25 14.6667C15.25 14.3445 14.9887 14.0832 14.6665 14.0832C14.3444 14.0833 14.0835 14.3446 14.0835 14.6667V16.0002C14.0836 16.3222 14.3445 16.5831 14.6665 16.5832C14.9886 16.5832 15.2499 16.3223 15.25 16.0002V14.6667ZM9.9165 8.00016C9.9165 7.67805 9.65559 7.41675 9.3335 7.41666C9.01133 7.41666 8.75 7.67799 8.75 8.00016V9.33317L8.75293 9.39274C8.78269 9.687 9.03138 9.91666 9.3335 9.91666C9.65559 9.91658 9.9165 9.65528 9.9165 9.33317V8.00016ZM14.6665 5.91666L14.7432 5.92057C15.1214 5.95889 15.4165 6.27828 15.4165 6.66666V9.91666H16C16.4142 9.91666 16.75 10.2525 16.75 10.6667C16.75 11.0809 16.4142 11.4167 16 11.4167H13.3335C12.9193 11.4167 12.5835 11.0809 12.5835 10.6667C12.5835 10.2525 12.9193 9.91666 13.3335 9.91666H13.9165V7.41666H13.3335C12.9193 7.41666 12.5835 7.08088 12.5835 6.66666C12.5835 6.25245 12.9193 5.91666 13.3335 5.91666H14.6665ZM16.75 16.0002C16.7499 17.1507 15.817 18.0832 14.6665 18.0832C13.516 18.0831 12.5836 17.1506 12.5835 16.0002V14.6667C12.5835 13.5161 13.516 12.5833 14.6665 12.5832C15.8171 12.5832 16.75 13.5161 16.75 14.6667V16.0002ZM11.4165 9.33317C11.4165 10.4837 10.484 11.4166 9.3335 11.4167C8.21888 11.4167 7.30876 10.5413 7.25293 9.44059L7.25 9.33317V8.00016C7.25 6.84957 8.1829 5.91666 9.3335 5.91666C10.484 5.91675 11.4165 6.84962 11.4165 8.00016V9.33317Z" fill="white"/>
</g>
<defs>
<filter id="filter0_d_4_40" x="2.5" y="3.25" width="19" height="19" filterUnits="userSpaceOnUse" color-interpolation-filters="sRGB">
<feFlood flood-opacity="0" result="BackgroundImageFix"/>
<feColorMatrix in="SourceAlpha" type="matrix" values="0 0 0 0 0 0 0 0 0 0 0 0 0 0 0 0 0 0 127 0" result="hardAlpha"/>
<feOffset dy="0.75"/>
<feGaussianBlur stdDeviation="0.75"/>
<feComposite in2="hardAlpha" operator="out"/>
<feColorMatrix type="matrix" values="0 0 0 0 0 0 0 0 0 0 0 0 0 0 0 0 0 0 1 0"/>
<feBlend mode="normal" in2="BackgroundImageFix" result="effect1_dropShadow_4_40"/>
<feBlend mode="normal" in="SourceGraphic" in2="effect1_dropShadow_4_40" result="shape"/>
</filter>
<linearGradient id="paint0_linear_4_40" x1="-3.9375" y1="-4.6875" x2="26.625" y2="26.25" gradientUnits="userSpaceOnUse">
<stop stop-color="#78716C"/>
<stop offset="1" stop-color="#292524"/>
</linearGradient>
</defs>
</svg>
